# xmcd CD database file
#
# Track frame offsets:
#	150
#	14185
#	29997
#	48165
#	61238
#	79272
#	97702
#	113217
#	131531
#	145573
#	167816
#
# Disc length: 2960 seconds
#
# Revision: 1
# Processed by: cddbd v1.4PL0 Copyright (c) Steve Scherf et al.
# Submitted via: CDex 1.50Beta6
#
DISCID=910b8e0b
DTITLE=Don Wise - Genuine Snake
DYEAR=2001
DGENRE=Blues
TTITLE0=No Longer A Part Of Your Dreams
TTITLE1=Lots Of Flame (But No Heat)
TTITLE2=Deeper Shade Of Blue
TTITLE3=Lonely Island
TTITLE4=Louisiana Moon
TTITLE5=Shoppin' For Clothes
TTITLE6=He Had The Shoes
TTITLE7=The New Is Me And You
TTITLE8=You Come First At Last
TTITLE9=Ride
TTITLE10=Genuine Snake
EXTD=YEAR: 2001
EXTT0=
EXTT1=
EXTT2=
EXTT3=
EXTT4=
EXTT5=
EXTT6=
EXTT7=
EXTT8=
EXTT9=
EXTT10=
PLAYORDER=
